<mxfile>
    <diagram id="MYfGZhd5R5gHjjigoIOa" name="Page-1">
        <mxGraphModel dx="840" dy="956" grid="1" gridSize="10" guides="1" tooltips="1" connect="1" arrows="1" fold="1" page="1" pageScale="1" pageWidth="850" pageHeight="1100" math="0" shadow="0">
            <root>
                <mxCell id="0"/>
                <mxCell id="1" parent="0"/>
                <mxCell id="4" value="" style="edgeStyle=orthogonalEdgeStyle;rounded=0;orthogonalLoop=1;jettySize=auto;html=1;" parent="1" source="2" target="3" edge="1">
                    <mxGeometry relative="1" as="geometry"/>
                </mxCell>
                <mxCell id="2" value="START" style="html=1;dashed=0;whitespace=wrap;shape=mxgraph.dfd.start" parent="1" vertex="1">
                    <mxGeometry x="140" y="40" width="80" height="30" as="geometry"/>
                </mxCell>
                <mxCell id="12" value="" style="edgeStyle=orthogonalEdgeStyle;curved=1;rounded=0;orthogonalLoop=1;jettySize=auto;html=1;" parent="1" source="3" target="7" edge="1">
                    <mxGeometry relative="1" as="geometry"/>
                </mxCell>
                <mxCell id="3" value="Sync the outputs" style="html=1;dashed=0;whitespace=wrap;" parent="1" vertex="1">
                    <mxGeometry x="130" y="110" width="100" height="50" as="geometry"/>
                </mxCell>
                <mxCell id="6" style="edgeStyle=orthogonalEdgeStyle;rounded=0;orthogonalLoop=1;jettySize=auto;html=1;entryX=1;entryY=0.5;entryDx=0;entryDy=0;curved=1;exitX=0;exitY=0.5;exitDx=0;exitDy=0;exitPerimeter=0;" parent="1" source="9" target="3" edge="1">
                    <mxGeometry relative="1" as="geometry">
                        <mxPoint x="300" y="85" as="sourcePoint"/>
                    </mxGeometry>
                </mxCell>
                <mxCell id="14" style="edgeStyle=orthogonalEdgeStyle;curved=1;rounded=0;orthogonalLoop=1;jettySize=auto;html=1;entryX=0.5;entryY=0;entryDx=0;entryDy=0;" parent="1" source="7" target="15" edge="1">
                    <mxGeometry relative="1" as="geometry">
                        <mxPoint x="180" y="310" as="targetPoint"/>
                    </mxGeometry>
                </mxCell>
                <mxCell id="7" value="Dispatch the actions" style="html=1;dashed=0;whitespace=wrap;" parent="1" vertex="1">
                    <mxGeometry x="125" y="200" width="110" height="50" as="geometry"/>
                </mxCell>
                <mxCell id="9" value="Syncs the outputs from Mixin Network and stores them int db&lt;br&gt;&lt;br&gt;module:&amp;nbsp; ./worker/syncer/syncer.go&lt;br&gt;&lt;font style=&quot;font-size: 12px&quot;&gt;mixin api: api.mixin.one/multisigs/outputs&lt;/font&gt;" style="shape=note;whiteSpace=wrap;html=1;backgroundOutline=1;darkOpacity=0.05;align=left;" parent="1" vertex="1">
                    <mxGeometry x="320" y="20" width="330" height="120" as="geometry"/>
                </mxCell>
                <mxCell id="11" style="edgeStyle=orthogonalEdgeStyle;curved=1;rounded=0;orthogonalLoop=1;jettySize=auto;html=1;entryX=1;entryY=0.5;entryDx=0;entryDy=0;" parent="1" source="10" target="7" edge="1">
                    <mxGeometry relative="1" as="geometry"/>
                </mxCell>
                <mxCell id="10" value="&lt;span&gt;1. Traverses all the outputs by time and Decodes the actions and business data from Output.Memo&lt;br&gt;2. Dispatch the actions&lt;br&gt;&lt;br&gt;Memo {&lt;br&gt;Action&lt;br&gt;FollowID&amp;nbsp; // like order id&lt;br&gt;BusinessData&amp;nbsp; // according to the specified action&lt;br&gt;}&lt;br&gt;&lt;br&gt;module: ./worker/snapshot/payee.go&lt;br&gt;&lt;/span&gt;" style="shape=note;whiteSpace=wrap;html=1;backgroundOutline=1;darkOpacity=0.05;align=left;" parent="1" vertex="1">
                    <mxGeometry x="321" y="165" width="309" height="185" as="geometry"/>
                </mxCell>
                <mxCell id="22" style="edgeStyle=orthogonalEdgeStyle;curved=1;rounded=0;orthogonalLoop=1;jettySize=auto;html=1;" parent="1" source="15" target="21" edge="1">
                    <mxGeometry relative="1" as="geometry"/>
                </mxCell>
                <mxCell id="15" value="Action Processing" style="rounded=0;whiteSpace=wrap;html=1;" parent="1" vertex="1">
                    <mxGeometry x="120" y="410" width="120" height="60" as="geometry"/>
                </mxCell>
                <mxCell id="21" value="END" style="html=1;dashed=0;whitespace=wrap;shape=mxgraph.dfd.start" parent="1" vertex="1">
                    <mxGeometry x="140" y="530" width="80" height="30" as="geometry"/>
                </mxCell>
                <mxCell id="24" style="edgeStyle=orthogonalEdgeStyle;curved=1;rounded=0;orthogonalLoop=1;jettySize=auto;html=1;entryX=1;entryY=0.5;entryDx=0;entryDy=0;" parent="1" source="23" target="15" edge="1">
                    <mxGeometry relative="1" as="geometry"/>
                </mxCell>
                <mxCell id="23" value="&lt;span&gt;actions:&lt;br&gt;supply: ./worker/snapshot/supply.go&lt;br&gt;pledge: ./worker/snapshot/supply_pledge.go&lt;br&gt;unpledge: ./worker/snapshot/supply_unpledge.go&lt;br&gt;redeem: ./worker/snapshot/supply_redeem.go&lt;br&gt;borrow: ./worker/snapshot/borrow.go&lt;br&gt;repay: ./worker/snapshot/repay.go&lt;br&gt;quick_pledge: ./worker/snapshot/quick_pledge.go&lt;br&gt;quick_borrow: ./worker/snapshot/quick_borrow.go&lt;br&gt;quick_redeem: ./worker/snapshot/quick_redeem.go&lt;br&gt;liquidation: ./worker/snapshot/liquidation.go&lt;br&gt;&lt;br&gt;and the proposal actions:&lt;br&gt;withdraw: ./worker/snapshot/withdraw.go&lt;br&gt;add or update market: ./worker/snapshot/market.go&lt;br&gt;open or close market: ./worker/snapshot/market_status.go&lt;br&gt;price oracle signer: ./worker/snapshot/oracle.go&lt;br&gt;allow list operation: ./worker/snapshot/allow_list.go&lt;br&gt;&lt;br&gt;&lt;br&gt;&lt;br&gt;&lt;/span&gt;" style="shape=note;whiteSpace=wrap;html=1;backgroundOutline=1;darkOpacity=0.05;align=left;" parent="1" vertex="1">
                    <mxGeometry x="310" y="410" width="340" height="330" as="geometry"/>
                </mxCell>
            </root>
        </mxGraphModel>
    </diagram>
</mxfile>